<mxfile host="app.diagrams.net" modified="2022-03-11T03:25:10.890Z" agent="5.0 (Windows NT 10.0; Win64; x64) AppleWebKit/537.36 (KHTML, like Gecko) Chrome/99.0.4844.51 Safari/537.36" etag="yNCOsNImnoTHNC3cNNGe" version="17.1.0" type="github">
  <diagram id="MAooeKKgTLRPPvrXeH5u" name="第 1 页">
    <mxGraphModel dx="1038" dy="539" grid="1" gridSize="10" guides="1" tooltips="1" connect="1" arrows="1" fold="1" page="1" pageScale="1" pageWidth="827" pageHeight="1169" math="0" shadow="0">
      <root>
        <mxCell id="0" />
        <mxCell id="1" parent="0" />
        <mxCell id="EQoYHqeXaqkLKB-YouGK-1" value="国网公司" style="rounded=1;whiteSpace=wrap;html=1;fontSize=18;fontFamily=MiSans;fillColor=#d5e8d4;strokeColor=#82b366;" vertex="1" parent="1">
          <mxGeometry x="80" y="60" width="180" height="60" as="geometry" />
        </mxCell>
        <mxCell id="EQoYHqeXaqkLKB-YouGK-2" value="省物资部" style="rounded=1;whiteSpace=wrap;html=1;fontSize=18;fontFamily=MiSans;fillColor=#fff2cc;strokeColor=#d6b656;" vertex="1" parent="1">
          <mxGeometry x="80" y="150" width="180" height="60" as="geometry" />
        </mxCell>
        <mxCell id="EQoYHqeXaqkLKB-YouGK-3" value="地县物资" style="rounded=1;whiteSpace=wrap;html=1;fontSize=18;fontFamily=MiSans;fillColor=#dae8fc;strokeColor=#6c8ebf;" vertex="1" parent="1">
          <mxGeometry x="80" y="240" width="180" height="60" as="geometry" />
        </mxCell>
      </root>
    </mxGraphModel>
  </diagram>
</mxfile>
